<svg xmlns="http://www.w3.org/2000/svg" width="512" height="512" viewBox="0 0 512 512"><path d="M256 50L67.166 153v208.246L256 462l188.834-100.754V154.123L256 50zm-17.167 363.92l-114.4-61.02 72.12-48.08c18.542-12.34-1.14-40.505-21.34-27.026l-73.713 49.12V191.28l137.333 74.903V413.92zM120.946 162.782l117.887-64.3v75.976c0 22.715 34.333 22.724 34.333 0V98.675L391.79 164.09l-135.706 72.405-135.138-73.713zm152.22 103.52L410.5 193.025v133.888l-73.176-48.784c-20.27-13.472-39.883 14.685-21.375 27.022l71.616 47.746-114.4 61.02V266.303z"/></svg>
