<svg xmlns="http://www.w3.org/2000/svg" width="512" height="512" viewBox="0 0 512 512"><path d="M462 283.742v-55.485l-49.25-17.514c-3.4-11.792-8.094-23.032-13.918-33.563l22.448-47.227-39.234-39.234-47.226 22.448c-10.53-5.824-21.772-10.52-33.564-13.92L283.74 50h-55.483l-17.515 49.25c-11.792 3.398-23.032 8.094-33.563 13.918l-47.228-22.45-39.234 39.235 22.45 47.227c-5.824 10.53-10.52 21.77-13.92 33.563L50 228.257v55.485l49.25 17.514c3.397 11.792 8.094 23.032 13.918 33.563l-22.45 47.226 39.234 39.234 47.227-22.45c10.53 5.825 21.77 10.52 33.562 13.92L228.257 462h55.484l17.516-49.25c11.792-3.397 23.034-8.094 33.564-13.918l47.226 22.448 39.234-39.234-22.448-47.226c5.824-10.53 10.52-21.772 13.92-33.564L462 283.742zm-206 47.804c-41.724 0-75.548-33.823-75.548-75.546s33.824-75.547 75.548-75.547c41.723 0 75.546 33.824 75.546 75.547S297.723 331.546 256 331.546z"/></svg>