<svg xmlns="http://www.w3.org/2000/svg" width="512" height="512" viewBox="0 0 512 512"><path d="M396.848 50.152c-35.983 0-65.155 29.172-65.155 65.152 0 53.506 51.245 59.164 65.155 140.542C410.758 174.466 462 168.81 462 115.306c0-35.982-29.17-65.154-65.152-65.154zm0 86.938c-12.906 0-23.366-10.46-23.366-23.364 0-12.905 10.46-23.367 23.366-23.367 12.904 0 23.365 10.46 23.365 23.366 0 12.903-10.46 23.364-23.365 23.364zm63.17 54.33c-10.782 13.498-21.106 26.437-28.067 47.12v143.452l-74.96 40.703V226.557c-4.376-9.463-9.528-17.23-15.024-24.545v219.043l-81.806-52.91v-215.84l70.95 35.895c-10.293-12.968-21.005-27.42-26.2-47.19l-51.915-26.41-93.81 48.743L50 105.243V399.52l109.185 62.328 93.81-62.32 95.815 62.32L462 399.52V188.932l-1.983 2.487zM151.002 422.694L80.05 381.992V155.06L151.003 193v229.695zm94.828-54.55l-79.8 52.91V193.69l79.8-41.385v215.84z"/></svg>