<svg xmlns="http://www.w3.org/2000/svg" width="512" height="512" viewBox="0 0 512 512"><path d="M255.916 89.162L410.5 174.4v166.26L256 423.09l-154.5-82.43V173.386l154.416-84.224zM256 50L67.166 153v208.246L256 462l188.834-100.754V154.124L256 50zm0 82.347l-120.167 63.57V317.39L256 379.018l120.166-61.626V196.58L256 132.346zm62.396 72.28l-62.23 31.994-61.59-32.933 61.34-32.456 62.48 33.396zm-148.23 24.936l68.667 36.722v65.355l-68.667-35.23v-66.847zm103 102.078v-65.17l68.668-35.297v65.238l-68.668 35.23z"/></svg>