<svg xmlns="http://www.w3.org/2000/svg" width="512" height="512" viewBox="0 0 512 512"><path d="M175.402 66.4c52.76-22.504 110.93-21.307 161.188.013l-25.248 43.73c-34.894-13.218-74.268-13.872-110.688-.002L175.402 66.4zM409.988 281c-6.002 36.828-25.122 71.253-55.343 95.86l25.253 43.74c45.868-34.44 73.917-85.415 80.583-139.6H409.99zm.035-50h50.5c-6.736-55.343-36.01-106.087-80.61-139.624l-25.25 43.734c29.43 24.01 49.28 58.372 55.36 95.89zm-308.01 0c6-36.828 25.12-71.253 55.342-95.858l-25.253-43.74C86.232 125.84 58.184 176.814 51.518 231h50.495zm209.332 170.86c-36.42 13.867-75.794 13.214-110.688-.003l-25.246 43.73c50.26 21.318 108.43 22.516 161.19.012l-25.255-43.74zM101.975 281h-50.5c6.738 55.34 36.014 106.088 80.612 139.624l25.25-43.735c-29.43-24.01-49.28-58.372-55.36-95.89z"/></svg>