<?xml version="1.0" encoding="utf-8"?>


<!-- The icon can be used freely in both personal and commercial projects with no attribution required, but always appreciated. 
You may NOT sub-license, resell, rent, redistribute or otherwise transfer the icon without express written permission from iconmonstr.com -->


<!DOCTYPE svg PUBLIC "-//W3C//DTD SVG 1.1//EN" "http://www.w3.org/Graphics/SVG/1.1/DTD/svg11.dtd">

<svg version="1.1" xmlns="http://www.w3.org/2000/svg" xmlns:xlink="http://www.w3.org/1999/xlink" x="0px" y="0px"

	 width="512px" height="512px" viewBox="0 0 512 512" enable-background="new 0 0 512 512" xml:space="preserve">

<path id="eye-2-icon" d="M303,256c0,24.854-20.147,45-45,45s-45-20.146-45-45c0-24.853,20.147-45,45-45S303,231.147,303,256z

	 M462,248.666c0,0-73,121.668-205.75,121.668C133,370.334,50,248.666,50,248.666s76.333-107,206.25-107

	C388.334,141.666,462,248.666,462,248.666z M338,256c0-44.183-35.817-80-80-80s-80,35.817-80,80c0,44.184,35.817,80,80,80

	S338,300.184,338,256z"/>

</svg>

