<?xml version="1.0" encoding="utf-8"?>

<!-- License Agreement at http://iconmonstr.com/license/ -->

<!DOCTYPE svg PUBLIC "-//W3C//DTD SVG 1.1//EN" "http://www.w3.org/Graphics/SVG/1.1/DTD/svg11.dtd">
<svg version="1.1" xmlns="http://www.w3.org/2000/svg" xmlns:xlink="http://www.w3.org/1999/xlink" x="0px" y="0px"
	 width="512px" height="512px" viewBox="0 0 512 512" style="enable-background:new 0 0 512 512;" xml:space="preserve">
<path id="ruler-3" d="M427.666,195.917v34.333H410.5v-34.333h-34.334v34.333H359v-34.333h-34.334v34.333H307.5v-34.333h-34.334
	v34.333H256v-34.333h-34.333v34.333H204.5v-34.333h-34.333v34.333H153v-34.333H50v120.166h412V195.917H427.666z M101.5,281.75
	c-9.48,0-17.167-7.678-17.167-17.167c0-9.479,7.687-17.166,17.167-17.166c9.48,0,17.167,7.687,17.167,17.166
	C118.667,274.072,110.98,281.75,101.5,281.75z"/>
</svg>
