<?xml version="1.0" encoding="UTF-8" standalone="no"?>
<!-- The icon can be used freely in both personal and commercial projects with no attribution required, but always appreciated.
You may NOT sub-license, resell, rent, redistribute or otherwise transfer the icon without express written permission from iconmonstr.com -->

<svg
   xmlns:dc="http://purl.org/dc/elements/1.1/"
   xmlns:cc="http://creativecommons.org/ns#"
   xmlns:rdf="http://www.w3.org/1999/02/22-rdf-syntax-ns#"
   xmlns:svg="http://www.w3.org/2000/svg"
   xmlns="http://www.w3.org/2000/svg"
   xmlns:sodipodi="http://sodipodi.sourceforge.net/DTD/sodipodi-0.dtd"
   xmlns:inkscape="http://www.inkscape.org/namespaces/inkscape"
   version="1.1"
   x="0px"
   y="0px"
   width="512px"
   height="512px"
   viewBox="0 0 512 512"
   enable-background="new 0 0 512 512"
   xml:space="preserve"
   id="svg2"
   inkscape:version="0.48.4 r9939"
   sodipodi:docname="about.svg"><metadata
   id="metadata9"><rdf:RDF><cc:Work
       rdf:about=""><dc:format>image/svg+xml</dc:format><dc:type
         rdf:resource="http://purl.org/dc/dcmitype/StillImage" /></cc:Work></rdf:RDF></metadata><defs
   id="defs7" /><sodipodi:namedview
   pagecolor="#ffffff"
   bordercolor="#666666"
   borderopacity="1"
   objecttolerance="10"
   gridtolerance="10"
   guidetolerance="10"
   inkscape:pageopacity="0"
   inkscape:pageshadow="2"
   inkscape:window-width="678"
   inkscape:window-height="480"
   id="namedview5"
   showgrid="false"
   inkscape:zoom="0.4609375"
   inkscape:cx="256"
   inkscape:cy="256"
   inkscape:window-x="388"
   inkscape:window-y="109"
   inkscape:window-maximized="0"
   inkscape:current-layer="svg2" />

<path
   id="help-icon"
   d="M259.462,462c-24.864,0-45.03-20.166-45.03-45.039c0-24.86,20.166-45.02,45.03-45.02   c24.87,0,45.029,20.159,45.029,45.02C304.491,441.834,284.332,462,259.462,462z M294.865,328.9v8.1c0,0-67.513,0-74.229,0v-8.1   c0-22.922,3.344-52.326,29.956-77.89c26.613-25.567,59.87-46.687,59.87-78.625c0-35.309-24.503-53.985-55.399-53.985   c-51.483,0-54.846,53.393-56.115,65.149H126.75C128.673,127.874,152.206,50,255.494,50c89.513,0,129.756,59.949,129.756,116.166   C385.25,255.646,294.865,271.189,294.865,328.9z"
   style="fill:#eeeeee;fill-opacity:1" />

</svg>
