<?xml version="1.0" encoding="UTF-8" standalone="no"?>
<!-- License Agreement at http://iconmonstr.com/license/ -->

<svg
   xmlns:dc="http://purl.org/dc/elements/1.1/"
   xmlns:cc="http://creativecommons.org/ns#"
   xmlns:rdf="http://www.w3.org/1999/02/22-rdf-syntax-ns#"
   xmlns:svg="http://www.w3.org/2000/svg"
   xmlns="http://www.w3.org/2000/svg"
   xmlns:sodipodi="http://sodipodi.sourceforge.net/DTD/sodipodi-0.dtd"
   xmlns:inkscape="http://www.inkscape.org/namespaces/inkscape"
   version="1.1"
   x="0px"
   y="0px"
   width="512px"
   height="512px"
   viewBox="0 0 512 512"
   style="enable-background:new 0 0 512 512;"
   xml:space="preserve"
   id="svg2"
   inkscape:version="0.48.4 r9939"
   sodipodi:docname="games.svg"><metadata
   id="metadata9"><rdf:RDF><cc:Work
       rdf:about=""><dc:format>image/svg+xml</dc:format><dc:type
         rdf:resource="http://purl.org/dc/dcmitype/StillImage" /></cc:Work></rdf:RDF></metadata><defs
   id="defs7" /><sodipodi:namedview
   pagecolor="#ffffff"
   bordercolor="#666666"
   borderopacity="1"
   objecttolerance="10"
   gridtolerance="10"
   guidetolerance="10"
   inkscape:pageopacity="0"
   inkscape:pageshadow="2"
   inkscape:window-width="678"
   inkscape:window-height="480"
   id="namedview5"
   showgrid="false"
   inkscape:zoom="0.4609375"
   inkscape:cx="256"
   inkscape:cy="256"
   inkscape:window-x="200"
   inkscape:window-y="30"
   inkscape:window-maximized="0"
   inkscape:current-layer="svg2" />
<path
   id="gamepad-icon"
   d="M50,225.744v200h412v-200H50z M195,339.244h-31.5v31.5h-27v-31.5H105v-27h31.5v-31.5h27v31.5H195V339.244  z M276,370.744h-40v-15h40V370.744z M339.25,343.744c-9.94,0-18-8.061-18-18c0-9.941,8.06-18,18-18c9.941,0,18,8.059,18,18  C357.25,335.684,349.191,343.744,339.25,343.744z M388.75,343.744c-9.94,0-18-8.061-18-18c0-9.941,8.06-18,18-18  c9.941,0,18,8.059,18,18C406.75,335.684,398.691,343.744,388.75,343.744z M265.688,194.782v10.962H245.39v-10.962  c0-26.72-8.237-31.061-37.144-36.433c-44.346-8.243-58.861-23.196-51.254-72.094l20.108,2.807  c-6.104,38.547,2.114,43.245,34.854,49.33C237.162,143.076,265.688,149.078,265.688,194.782z"
   style="fill:#555555;fill-opacity:1" />
</svg>