<?xml version="1.0" encoding="UTF-8" standalone="no"?>
<!-- License Agreement at http://iconmonstr.com/license/ -->

<svg
   xmlns:dc="http://purl.org/dc/elements/1.1/"
   xmlns:cc="http://creativecommons.org/ns#"
   xmlns:rdf="http://www.w3.org/1999/02/22-rdf-syntax-ns#"
   xmlns:svg="http://www.w3.org/2000/svg"
   xmlns="http://www.w3.org/2000/svg"
   xmlns:sodipodi="http://sodipodi.sourceforge.net/DTD/sodipodi-0.dtd"
   xmlns:inkscape="http://www.inkscape.org/namespaces/inkscape"
   version="1.1"
   x="0px"
   y="0px"
   width="512px"
   height="512px"
   viewBox="0 0 512 512"
   enable-background="new 0 0 512 512"
   xml:space="preserve"
   id="svg2"
   inkscape:version="0.48.4 r9939"
   sodipodi:docname="proto.svg"><metadata
   id="metadata9"><rdf:RDF><cc:Work
       rdf:about=""><dc:format>image/svg+xml</dc:format><dc:type
         rdf:resource="http://purl.org/dc/dcmitype/StillImage" /></cc:Work></rdf:RDF></metadata><defs
   id="defs7" /><sodipodi:namedview
   pagecolor="#ffffff"
   bordercolor="#666666"
   borderopacity="1"
   objecttolerance="10"
   gridtolerance="10"
   guidetolerance="10"
   inkscape:pageopacity="0"
   inkscape:pageshadow="2"
   inkscape:window-width="678"
   inkscape:window-height="480"
   id="namedview5"
   showgrid="false"
   inkscape:zoom="0.4609375"
   inkscape:cx="256"
   inkscape:cy="256"
   inkscape:window-x="317"
   inkscape:window-y="175"
   inkscape:window-maximized="0"
   inkscape:current-layer="svg2" />
<path
   id="javascript-code-icon"
   d="M130.269,256c17.686,7.75,30.25,24.5,30.25,54v34.457c0,24.955,22.379,32.912,41.547,33.494  v36.861c-52.264,0-83.111-17.9-83.111-66.234v-38.383c0-24.547-19.5-35.537-39.354-35.537v-37.316  c19.854,0,39.354-10.989,39.354-35.536v-38.384c0-48.333,30.848-66.234,83.111-66.234v36.861  c-19.168,0.582-41.547,8.539-41.547,33.495V202C160.519,231.5,147.954,248.25,130.269,256z M351.481,202v-34.456  c0-24.956-22.379-32.913-41.547-33.495V97.188c52.264,0,83.111,17.901,83.111,66.234v38.384c0,24.547,19.5,35.536,39.354,35.536  v37.316c-19.854,0-39.354,10.99-39.354,35.537v38.383c0,48.334-30.848,66.234-83.111,66.234v-36.861  c19.168-0.582,41.547-8.539,41.547-33.494V310c0-29.5,12.564-46.25,30.25-54C364.046,248.25,351.481,231.5,351.481,202z   M283.546,272.288c0,0,0,14.832,0,31.154c0,27.851-17.6,50.385-43.244,55.457l-4.86-10.504c11.876-4.475,19.408-18.845,19.408-29.64  h-20.046v-46.468H283.546z M283.546,172.051h-48.742v48.821h48.742V172.051z"
   style="fill:#eeeeee;fill-opacity:1" />
</svg>
