<svg xmlns="http://www.w3.org/2000/svg" width="512" height="512" viewBox="0 0 512 512"><path d="M259.462 462c-24.864 0-45.03-20.166-45.03-45.04 0-24.86 20.166-45.02 45.03-45.02 24.87 0 45.03 20.16 45.03 45.02 0 24.874-20.16 45.04-45.03 45.04zm35.403-133.1v8.1h-74.23v-8.1c0-22.922 3.345-52.326 29.957-77.89 26.613-25.567 59.87-46.687 59.87-78.625 0-35.31-24.503-53.985-55.4-53.985-51.482 0-54.845 53.393-56.114 65.15H126.75C128.673 127.873 152.206 50 255.494 50c89.513 0 129.756 59.95 129.756 116.166 0 89.48-90.385 105.023-90.385 162.734z" fill="#eee"/></svg>