<svg xmlns="http://www.w3.org/2000/svg" width="512" height="512" viewBox="0 0 512 512"><path d="M50 225.744v200h412v-200H50zm145 113.5h-31.5v31.5h-27v-31.5H105v-27h31.5v-31.5h27v31.5H195v27zm81 31.5h-40v-15h40v15zm63.25-27c-9.94 0-18-8.06-18-18s8.06-18 18-18 18 8.06 18 18-8.06 18-18 18zm49.5 0c-9.94 0-18-8.06-18-18s8.06-18 18-18 18 8.06 18 18-8.06 18-18 18zM265.688 194.782v10.962H245.39v-10.962c0-26.72-8.237-31.06-37.144-36.433-44.346-8.244-58.86-23.197-51.254-72.095l20.108 2.807c-6.104 38.547 2.114 43.245 34.854 49.33 25.208 4.684 53.734 10.686 53.734 56.39z" fill="#eee"/></svg>