<svg xmlns="http://www.w3.org/2000/svg" width="512" height="512" viewBox="0 0 512 512"><path d="M375.333 197.79L340.858 84.683l-290.86 88.65 66.92 219.557 41.015-12.502v46.93H462V197.792h-86.667zM136.548 356.043L86.845 192.966l234.38-71.44 23.247 76.266h-186.54v151.732l-21.384 6.518zm295.93 41.755H187.453V227.312H432.48v170.485zm-206.024-124.66c0-12.443 10.088-22.533 22.533-22.533 12.44 0 22.53 10.09 22.53 22.533 0 12.444-10.09 22.53-22.53 22.53-12.445 0-22.533-10.086-22.533-22.53zm114.285.72l-37.35 53.068-20.3-20.922-57.275 65.076h179.03l-64.106-97.223z"/></svg>