<svg xmlns="http://www.w3.org/2000/svg" width="512" height="512" viewBox="0 0 512 512"><path d="M130.27 256c17.685 7.75 30.25 24.5 30.25 54v34.457c0 24.955 22.378 32.912 41.546 33.494v36.862c-52.264 0-83.11-17.9-83.11-66.234v-38.383c0-24.547-19.5-35.537-39.355-35.537v-37.316c19.855 0 39.355-10.99 39.355-35.536v-38.384c0-48.333 30.848-66.234 83.11-66.234v36.86c-19.167.583-41.546 8.54-41.546 33.496V202c0 29.5-12.566 46.25-30.25 54zm221.21-54v-34.456c0-24.956-22.378-32.913-41.546-33.495V97.187c52.264 0 83.11 17.9 83.11 66.234v38.384c0 24.547 19.5 35.536 39.355 35.536v37.316c-19.855 0-39.355 10.99-39.355 35.537v38.383c0 48.334-30.848 66.234-83.11 66.234v-36.86c19.167-.583 41.546-8.54 41.546-33.495V310c0-29.5 12.565-46.25 30.25-54-17.684-7.75-30.25-24.5-30.25-54zm-67.934 70.288v31.154c0 27.85-17.6 50.385-43.244 55.457l-4.86-10.505c11.876-4.475 19.408-18.845 19.408-29.64h-20.046v-46.468h48.742zm0-100.237h-48.742v48.822h48.742v-48.82z" fill="#eee"/></svg>