<svg xmlns="http://www.w3.org/2000/svg" width="512" height="512" viewBox="0 0 512 512"><path d="M340.377 292.154h-113.2v-124.4h36v88.4h77.2v36zm49.027 86.704c29.393-32.142 47.327-74.937 47.327-121.924 0-99.814-80.914-180.73-180.73-180.73-99.815 0-180.73 80.916-180.73 180.73 0 46.986 17.935 89.78 47.326 121.924L93.658 450.86c-1.21 3.014-.317 6.465 2.204 8.513s6.086 2.22 8.786.413c18.39-12.305 45.747-30.606 65.463-43.797 25.55 13.823 54.802 21.676 85.89 21.676s60.342-7.853 85.89-21.677l65.463 43.796c2.7 1.807 6.264 1.643 8.786-.404 2.522-2.047 3.417-5.5 2.205-8.515l-28.94-72.01zM256 392.666c-75.013 0-135.73-60.707-135.73-135.73 0-75.014 60.706-135.73 135.73-135.73 75.013 0 135.73 60.703 135.73 135.73 0 75.01-60.704 135.73-135.73 135.73zM174.875 62.454c-12.25-7.292-26.556-11.49-41.848-11.49-45.287 0-82 36.712-82 82 0 15.056 4.068 29.157 11.153 41.283 21.554-50.33 62.158-90.633 112.695-111.793zM449.82 174.246c7.085-12.126 11.152-26.227 11.152-41.283 0-45.287-36.713-82-82-82-15.292 0-29.597 4.2-41.847 11.49 50.537 21.16 91.14 61.463 112.695 111.793z" fill="#555"/></svg>