<?xml version="1.0" encoding="utf-8"?>

<!-- License Agreement at http://iconmonstr.com/license/ -->

<!DOCTYPE svg PUBLIC "-//W3C//DTD SVG 1.1//EN" "http://www.w3.org/Graphics/SVG/1.1/DTD/svg11.dtd">
<svg version="1.1" xmlns="http://www.w3.org/2000/svg" xmlns:xlink="http://www.w3.org/1999/xlink" x="0px" y="0px"
	 width="512px" height="512px" viewBox="0 0 512 512" style="enable-background:new 0 0 512 512;" xml:space="preserve">
<path id="cube-9-icon" d="M255.916,89.162L410.5,174.4v166.26L256,423.09l-154.5-82.43V173.386L255.916,89.162z M256,50L67.166,153
	v208.246L256,462l188.834-100.754V154.124L256,50z M256,132.347l-120.167,63.57v121.474L256,379.017l120.166-61.626V196.579
	L256,132.347z M318.396,204.626l-62.229,31.995l-61.592-32.934l61.341-32.456L318.396,204.626z M170.166,229.563l68.667,36.722
	v65.355l-68.667-35.23V229.563z M273.166,331.641V266.47l68.668-35.297v65.238L273.166,331.641z"/>
</svg>
